<svg id="svg" xmlns="http://www.w3.org/2000/svg" xmlns:xlink="http://www.w3.org/1999/xlink" width="400" height="400" viewBox="0, 0, 400,400"><g id="svgg"><path id="path0" d="M30.899 39.613 C -0.433 47.213,-2.265 91.400,28.333 101.465 L 33.000 103.000 200.333 103.000 L 367.667 103.000 371.964 101.449 C 401.898 90.644,400.571 47.855,370.054 39.889 C 364.312 38.390,37.038 38.124,30.899 39.613 M29.388 169.059 C -1.734 177.426,-0.721 224.040,30.741 231.293 C 36.135 232.536,365.517 232.225,370.360 230.972 C 401.162 223.001,401.135 177.051,370.323 169.025 C 364.521 167.514,35.014 167.546,29.388 169.059 M31.673 297.450 C -2.130 303.896,-1.637 354.414,32.289 360.611 C 37.864 361.629,362.136 361.629,367.711 360.611 C 402.057 354.337,402.057 303.663,367.711 297.389 C 362.578 296.452,36.600 296.511,31.673 297.450 " stroke="none" fill="#000000" fill-rule="evenodd"></path></g></svg>